<svg width="33" height="33" viewBox="0 0 33 33" fill="none" xmlns="http://www.w3.org/2000/svg">
<g clip-path="url(#clip0_167529_2)">
<path d="M33 16.5C33 7.38478 25.609 0 16.5 0C7.38478 0 0 7.38478 0 16.5C0 24.7335 6.03178 31.5604 13.9219 32.7968V21.2706H9.73191V16.501H13.9219V12.8638C13.9219 8.72953 16.3814 6.44634 20.1517 6.44634C21.9574 6.44634 23.8477 6.76809 23.8477 6.76809V10.8281H21.7635C19.7175 10.8281 19.0781 12.1017 19.0781 13.4062V16.5H23.6538L22.9185 21.2695H19.0781V32.7958C26.962 31.5593 33 24.7325 33 16.499V16.5Z" fill="#444A34"/>
</g>
<defs>
<clipPath id="clip0_167529_2">
<rect width="33" height="33" fill="white"/>
</clipPath>
</defs>
</svg>
