<svg width="33" height="33" viewBox="0 0 33 33" fill="none" xmlns="http://www.w3.org/2000/svg">
<path fill-rule="evenodd" clip-rule="evenodd" d="M16.5 33C25.6127 33 33 25.6127 33 16.5C33 7.3873 25.6127 0 16.5 0C7.3873 0 0 7.3873 0 16.5C0 25.6127 7.3873 33 16.5 33Z" fill="#FFD723"/>
<path d="M29.0488 14.8624C29.0406 14.1241 29.0379 13.3803 29.0352 12.6393H26.8258C26.8176 13.3776 26.8121 14.1186 26.8066 14.8624C26.0629 14.8651 25.3246 14.8706 24.5863 14.8788V17.0909C25.3246 17.0991 26.0684 17.1046 26.8066 17.1128C26.8148 17.8511 26.8148 18.5921 26.8203 19.3303H29.0324C29.0352 18.5921 29.0406 17.8511 29.0461 17.1073C29.7898 17.0991 30.5281 17.0964 31.2664 17.0882V14.8761C30.5309 14.8706 29.7871 14.8706 29.0488 14.8624ZM14.5566 14.8733C14.5539 15.7565 14.5566 16.6425 14.5594 17.5257C16.0414 17.5749 17.5262 17.553 19.0082 17.5749C18.3547 20.8643 13.884 21.9307 11.5188 19.7815C9.08516 17.8975 9.20001 13.7659 11.7293 12.0159C13.4984 10.605 16.0113 10.9522 17.7805 12.1745C18.475 11.5319 19.1258 10.8428 19.752 10.1319C18.2809 8.95886 16.4762 8.12215 14.5566 8.20965C10.5481 8.07566 6.86485 11.5866 6.79922 15.5979C6.54219 18.8764 8.69688 22.0893 11.7375 23.2487C14.7672 24.4163 18.6527 23.6206 20.5887 20.8971C21.8656 19.1772 22.1418 16.9624 21.9914 14.8815C19.5113 14.8624 17.034 14.8651 14.5566 14.8733Z" fill="#F8F8F8"/>
</svg>
