<svg width="33" height="33" viewBox="0 0 33 33" fill="none" xmlns="http://www.w3.org/2000/svg">
<path fill-rule="evenodd" clip-rule="evenodd" d="M16.5 33C25.6127 33 33 25.6127 33 16.5C33 7.3873 25.6127 0 16.5 0C7.3873 0 0 7.3873 0 16.5C0 25.6127 7.3873 33 16.5 33Z" fill="#444A34"/>
<path fill-rule="evenodd" clip-rule="evenodd" d="M26.238 26.2363C26.8248 25.6477 27.2857 24.9403 27.5863 24.1645C27.8743 23.4193 28.0723 22.5697 28.1299 21.3241C28.1875 20.0766 28.2019 19.677 28.2019 16.5C28.2019 13.323 28.1875 12.9234 28.1299 11.676C28.0723 10.4304 27.8743 9.58085 27.5863 8.83565C27.2923 8.05507 26.8316 7.34802 26.2363 6.76385C25.652 6.16858 24.945 5.70788 24.1645 5.41385C23.4193 5.12585 22.5697 4.92785 21.3241 4.87025C20.0766 4.81265 19.677 4.80005 16.5 4.80005C13.323 4.80005 12.9234 4.81265 11.676 4.87205C10.4304 4.92605 9.58085 5.12405 8.83565 5.41385C8.05546 5.70855 7.34857 6.16917 6.76385 6.76385C6.16917 7.34857 5.70855 8.05546 5.41385 8.83565C5.12585 9.58085 4.92785 10.4304 4.87025 11.676C4.81265 12.9234 4.80005 13.323 4.80005 16.5C4.80005 19.677 4.81265 20.0766 4.87205 21.3241C4.92605 22.5697 5.12405 23.4193 5.41385 24.1645C5.70905 24.9457 6.16985 25.6513 6.76385 26.2363C7.34885 26.8303 8.05625 27.2911 8.83565 27.5863C9.58085 27.8743 10.4304 28.0723 11.676 28.1299C12.9234 28.1857 13.323 28.2 16.5 28.2C19.677 28.2 20.0766 28.1856 21.3241 28.128C22.5697 28.074 23.4193 27.8761 24.1645 27.5863C24.9415 27.2855 25.649 26.8256 26.238 26.2363ZM6.60005 15.123V17.877C6.59645 19.3548 6.59645 19.7383 6.63605 20.5771C6.68285 21.6319 6.74045 22.4058 6.91685 22.989C7.08605 23.5506 7.27505 24.123 7.89425 24.8106C8.51345 25.5 9.10925 25.8114 9.86885 26.0418C10.6302 26.2704 11.586 26.319 12.4158 26.3568C13.3554 26.4 13.7298 26.4 15.7026 26.4H17.832C19.3476 26.4018 19.7292 26.4036 20.5788 26.364C21.6318 26.3154 22.4058 26.2579 22.9908 26.0833C23.5506 25.9141 24.123 25.7232 24.8106 25.1058C25.5 24.4866 25.8114 23.889 26.0418 23.1294C26.2704 22.3698 26.3209 21.414 26.3587 20.5842C26.4001 19.6446 26.4 19.272 26.4 17.3046V15.7026C26.4 13.7298 26.4001 13.3572 26.3587 12.4158C26.3209 11.586 26.2704 10.6302 26.0418 9.87065C25.8132 9.10925 25.5018 8.51345 24.8106 7.89425C24.1212 7.27505 23.5506 7.08605 22.9908 6.91685C22.4058 6.74225 21.6318 6.68285 20.5788 6.63605C19.6638 6.59844 18.7478 6.58644 17.832 6.60005H15.7026C13.7298 6.60005 13.3554 6.60005 12.4158 6.64145C11.586 6.67925 10.6302 6.72965 9.86885 6.95825C9.10925 7.18865 8.51345 7.50005 7.89425 8.18945C7.27505 8.87885 7.08425 9.44945 6.91685 10.011C6.74045 10.5942 6.68285 11.3682 6.63605 12.423C6.59645 13.2618 6.59645 13.6452 6.60005 15.123ZM16.5 12.45C15.4259 12.45 14.3958 12.8767 13.6363 13.6363C12.8767 14.3958 12.45 15.4259 12.45 16.5C12.45 17.5742 12.8767 18.6043 13.6363 19.3638C14.3958 20.1234 15.4259 20.55 16.5 20.55C17.5742 20.55 18.6043 20.1234 19.3638 19.3638C20.1234 18.6043 20.55 17.5742 20.55 16.5C20.55 15.4259 20.1234 14.3958 19.3638 13.6363C18.6043 12.8767 17.5742 12.45 16.5 12.45ZM10.65 16.5C10.65 14.9485 11.2664 13.4606 12.3635 12.3635C13.4606 11.2664 14.9485 10.65 16.5 10.65C18.0516 10.65 19.5395 11.2664 20.6366 12.3635C21.7337 13.4606 22.35 14.9485 22.35 16.5C22.35 18.0516 21.7337 19.5395 20.6366 20.6366C19.5395 21.7337 18.0516 22.35 16.5 22.35C14.9485 22.35 13.4606 21.7337 12.3635 20.6366C11.2664 19.5395 10.65 18.0516 10.65 16.5ZM22.7461 11.604C23.1041 11.604 23.4475 11.4618 23.7006 11.2086C23.9538 10.9555 24.0961 10.6121 24.0961 10.254C24.0961 9.89601 23.9538 9.55263 23.7006 9.29946C23.4475 9.04628 23.1041 8.90405 22.7461 8.90405C22.388 8.90405 22.0446 9.04628 21.7915 9.29946C21.5383 9.55263 21.396 9.89601 21.396 10.254C21.396 10.6121 21.5383 10.9555 21.7915 11.2086C22.0446 11.4618 22.388 11.604 22.7461 11.604Z" fill="#5E6648"/>
</svg>
