<svg width="13" height="13" viewBox="0 0 13 13" fill="none" xmlns="http://www.w3.org/2000/svg">
<path d="M12.1875 6.50001C12.1878 6.63795 12.1525 6.77362 12.0848 6.89384C12.0172 7.01406 11.9196 7.11473 11.8016 7.18606L4.485 11.6619C4.36165 11.7375 4.22036 11.7787 4.07574 11.7814C3.93112 11.7841 3.78841 11.7481 3.66234 11.6772C3.53748 11.6073 3.43346 11.5055 3.36099 11.3822C3.28852 11.2588 3.25021 11.1184 3.25 10.9754V2.02466C3.25021 1.8816 3.28852 1.74118 3.36099 1.61783C3.43346 1.49449 3.53748 1.39268 3.66234 1.32286C3.78841 1.25194 3.93112 1.21597 4.07574 1.21865C4.22036 1.22132 4.36165 1.26256 4.485 1.3381L11.8016 5.81395C11.9196 5.88529 12.0172 5.98596 12.0848 6.10618C12.1525 6.2264 12.1878 6.36207 12.1875 6.50001Z" fill="#DDDDDD"/>
</svg>
